<?xml version="1.0" encoding="UTF-8"?>
<svg version="1.1" xmlns="http://www.w3.org/2000/svg" width="794" height="450">
<path d="M0 0 C262.02 0 524.04 0 794 0 C794 148.5 794 297 794 450 C531.98 450 269.96 450 0 450 C0 301.5 0 153 0 0 Z " fill="#FEFEFE" transform="translate(0,0)"/>
<path d="M0 0 C4.890337 0.00008137 9.78058055 -0.00689302 14.67089844 -0.02050781 C65.72832657 -0.16057104 65.72832657 -0.16057104 89.10087585 1.93571472 C93.02866548 2.2778956 96.96054684 2.54416475 100.89425659 2.80815125 C122.67428006 4.37630385 145.79445436 7.51737862 165.96582031 16.18530273 C167.56072281 16.67490071 169.16457324 17.13693468 170.77832031 17.56030273 C175.16873304 18.84385668 179.04669489 20.56213689 183.09082031 22.68530273 C185.24493236 23.80918728 187.40094571 24.88579852 189.59082031 25.93530273 C208.87112622 35.22727591 225.96811253 46.92959352 241.43896484 61.72583008 C242.46897807 62.71038701 243.50394491 63.68978413 244.54345703 64.66430664 C253.80879682 73.37186677 261.54370874 82.87695021 268.96582031 93.18530273 C269.40490723 93.78503906 269.84399414 94.38477539 270.29638672 95.00268555 C291.80587255 124.59396415 304.87668524 157.21224541 300.34082031 194.06030273 C294.74538784 222.95726224 276.7993682 246.98546733 256.51757812 267.59838867 C255.13215232 269.01520235 253.77721492 270.46168206 252.42675781 271.91186523 C233.785807 291.55032512 208.27739211 305.65150632 182.90087891 314.50610352 C181.03692421 315.1603455 179.18274126 315.8422266 177.32910156 316.52514648 C154.72657895 324.56431399 131.24909299 325.85159136 107.46606445 326.79150391 C100.13875613 327.09221513 92.83978307 327.62460462 85.52832031 328.18530273 C37.39160037 331.75561266 -10.8644086 330.24892217 -59.03417969 328.18530273 C-59.95281799 328.14663086 -60.8714563 328.10795898 -61.81793213 328.06811523 C-66.89253704 327.85184078 -71.96314991 327.59861227 -77.03417969 327.31030273 C-78.15783936 327.25632324 -79.28149902 327.20234375 -80.43920898 327.14672852 C-88.90382136 326.58985491 -96.4696658 324.78509736 -102.84667969 318.93530273 C-104.88503719 317.07274763 -105.84695753 316.24146938 -108.53417969 315.43530273 C-111.82431877 316.42234446 -113.59039705 318.3068872 -116.10839844 320.58764648 C-126.49941466 329.2081853 -141.8137213 327.34148843 -154.51855469 327.42358398 C-155.74020325 327.43165573 -156.96185181 327.43972748 -158.22052002 327.44804382 C-160.7783471 327.4617537 -163.33619146 327.47253316 -165.89404297 327.48046875 C-168.49468395 327.4920569 -171.09529992 327.51261442 -173.69580078 327.54199219 C-177.49104655 327.58472391 -181.28559813 327.60083626 -185.08105469 327.61108398 C-186.80796539 327.63734612 -186.80796539 327.63734612 -188.56976318 327.66413879 C-197.42580913 327.64048282 -204.96028513 326.11934736 -211.78417969 320.18530273 C-219.76115393 311.34071059 -222.73832979 299.52485299 -225.53417969 288.24780273 C-225.72327911 287.49974365 -225.91237854 286.75168457 -226.10720825 285.98095703 C-232.50959856 260.51204145 -236.52530369 234.60338535 -237.85072327 208.37214661 C-238.03086867 205.24281889 -238.28555048 202.12617393 -238.54394531 199.00244141 C-239.18638719 190.04854261 -239.19835255 181.11185153 -239.20214844 172.13842773 C-239.20537497 170.3150022 -239.20873999 168.4915769 -239.2122345 166.66815186 C-239.21818584 162.85924685 -239.22007878 159.05036439 -239.21948242 155.24145508 C-239.21940154 151.39212304 -239.2262893 147.54291095 -239.23999023 143.69360352 C-239.43932641 86.74676952 -239.43932641 86.74676952 -232.64697266 60.59545898 C-232.08694223 58.39282137 -231.58101599 56.18767909 -231.10058594 53.96655273 C-227.74191059 38.78324331 -221.76174972 15.35822326 -208.03417969 6.43530273 C-203.47947991 3.62419896 -199.65069706 3.0604673 -194.32617188 2.94482422 C-193.17687195 2.91907822 -192.02757202 2.89333221 -190.84344482 2.86680603 C-185.55457623 2.7818871 -180.26587817 2.71665384 -174.9765625 2.67041016 C-172.20229502 2.64385867 -169.42979131 2.59540401 -166.65625 2.52685547 C-150.58336647 2.13896417 -137.712219 2.12595641 -124.03417969 11.18530273 C-120.5093221 12.77021733 -117.91735375 13.76195102 -114.03417969 13.18530273 C-111.63504276 11.53165785 -111.63504276 11.53165785 -109.47167969 9.31030273 C-105.09029053 5.07318809 -102.0833334 3.04969871 -95.94042969 2.58764648 C-94.3896875 2.46873047 -94.3896875 2.46873047 -92.80761719 2.34741211 C-91.18726563 2.23623047 -91.18726563 2.23623047 -89.53417969 2.12280273 C-88.54675781 2.04481445 -87.55933594 1.96682617 -86.54199219 1.88647461 C-82.70820538 1.60567061 -78.87281809 1.385785 -75.03417969 1.18530273 C-73.79266144 1.11854843 -73.79266144 1.11854843 -72.52606201 1.05044556 C-48.37218297 -0.18095935 -24.17759234 -0.00211267 0 0 Z " fill="#010101" transform="translate(365.0341796875,52.814697265625)"/>
<path d="M0 0 C4.06102612 2.96533171 7.16087115 6.24722451 8.69921875 11.08203125 C8.74046875 12.15453125 8.78171875 13.22703125 8.82421875 14.33203125 C8.88480469 15.21632812 8.94539063 16.100625 9.0078125 17.01171875 C9.33897504 24.57828097 9.33897504 24.57828097 7.07421875 27.89453125 C1.69378397 31.33203125 1.69378397 31.33203125 -2.17578125 31.33203125 C-2.06121026 33.23848571 -2.06121026 33.23848571 -1.17578125 35.33203125 C1.06861339 37.07016929 1.06861339 37.07016929 3.93359375 38.5390625 C4.99271973 39.12284668 6.0518457 39.70663086 7.14306641 40.30810547 C8.27534668 40.91412598 9.40762695 41.52014648 10.57421875 42.14453125 C11.71552246 42.76602051 12.85682617 43.38750977 14.03271484 44.02783203 C16.28638084 45.25380319 18.54266935 46.47496772 20.80175781 47.69091797 C23.26625637 49.029073 25.70455181 50.39581054 28.12890625 51.8046875 C29.22460938 52.43246094 30.3203125 53.06023437 31.44921875 53.70703125 C32.34898437 54.23039062 33.24875 54.75375 34.17578125 55.29296875 C37.67970799 56.66766567 40.09116641 56.84375303 43.82421875 56.33203125 C46.56737967 54.20914631 46.56737967 54.20914631 48.82421875 51.33203125 C49.62601562 50.46964844 50.4278125 49.60726562 51.25390625 48.71875 C52.06085938 47.82800781 52.8678125 46.93726563 53.69921875 46.01953125 C54.570625 45.05917969 55.44203125 44.09882813 56.33984375 43.109375 C58.41147011 40.79345307 60.4371898 38.44939559 62.44921875 36.08203125 C68.44906018 29.2210361 73.7268264 23.94677421 83.15625 22.99609375 C84.87908203 22.97675781 84.87908203 22.97675781 86.63671875 22.95703125 C87.77753906 22.92867187 88.91835938 22.9003125 90.09375 22.87109375 C105.61194336 24.78852497 127.04612242 38.34985583 136.82421875 50.33203125 C140.41907102 55.81601508 141.67537153 60.84199131 140.82421875 67.33203125 C138.40620068 72.26881815 134.7058229 75.3776115 130.53125 78.81640625 C127.91113795 81.14273 127.64774267 83.07934988 127.24609375 86.4375 C127.13652344 87.25669922 127.02695312 88.07589844 126.9140625 88.91992188 C126.69026663 90.63183165 126.47899567 92.34543279 126.28125 94.06054688 C125.333133 100.88379336 123.0610637 105.28055628 118.05078125 110.00390625 C115.11927198 111.97731249 112.49651382 113.46763329 109.19921875 114.83203125 C104.7174932 116.82390927 102.26777281 119.62449393 99.13671875 123.328125 C98.53859375 124.03066406 97.94046875 124.73320312 97.32421875 125.45703125 C96.77765625 126.11960937 96.23109375 126.7821875 95.66796875 127.46484375 C92.49887666 130.6742209 89.99012857 132.18102076 85.4765625 132.765625 C76.94432457 132.77459686 69.6977367 131.85848014 61.82421875 128.33203125 C60.95023437 127.94273437 60.07625 127.5534375 59.17578125 127.15234375 C51.64596065 123.23683704 47.51835913 117.2325084 42.82421875 110.33203125 C36.96889399 101.82550617 30.46036167 97.08341074 21.44921875 92.20703125 C20.84924072 91.8821875 20.2492627 91.55734375 19.63110352 91.22265625 C16.1557672 89.39806992 12.65289459 87.8343179 8.99609375 86.40625 C-0.372321 82.73578235 -9.23710048 77.92846897 -18.17578125 73.33203125 C-19.12098633 72.85217773 -20.06619141 72.37232422 -21.04003906 71.87792969 C-23.76366263 70.48809317 -26.4712241 69.07105257 -29.17578125 67.64453125 C-29.99353027 67.23001709 -30.8112793 66.81550293 -31.65380859 66.38842773 C-37.22938997 63.38955564 -41.17167401 59.98507694 -44.17578125 54.33203125 C-47.31398697 40.00764062 -40.6222761 23.32286991 -33.17578125 11.33203125 C-24.97618895 0.04151089 -13.67675543 -7.85095697 0 0 Z " fill="#FCFCFC" transform="translate(364.17578125,220.66796875)"/>
<path d="M0 0 C3.006818 1.33999498 4.99762609 2.79845291 7.25 5.1875 C10.31591561 8.34454686 13.51094566 11.25366088 16.84375 14.125 C19.19962958 16.17359094 21.5050746 18.27203002 23.8125 20.375 C29.71975689 25.70048159 35.86806304 30.72138739 42.09716797 35.6640625 C44.40554347 37.49609081 46.70281645 39.34146673 49 41.1875 C49.74258057 41.76975342 50.48516113 42.35200684 51.25024414 42.9519043 C55.32184594 46.2403438 58.25468349 48.90501834 60 54 C60.265625 57.078125 60.265625 57.078125 60.25 60.25 C60.68383253 67.42051501 62.85880663 71.9801052 68 77 C73.0788441 80.69826869 78.37386928 82.8367837 84.70703125 82.51171875 C88.3514151 81.69840651 91.37637819 79.93385812 94.54296875 77.99609375 C97.88370946 76.64173941 99.5489754 76.97794934 103 78 C105.53915875 79.32939694 107.88645711 80.88257552 110.25 82.5 C111.48398262 83.32350493 112.71834074 84.14644755 113.953125 84.96875 C114.95859375 85.6390625 115.9640625 86.309375 117 87 C117.66 87.33 118.32 87.66 119 88 C117.66198588 91.0649092 116.29092019 92.85360933 113.6875 94.9375 C110.04793932 97.93919953 106.704091 101.12910644 103.5234375 104.62109375 C98.63912544 109.81790919 93.16410415 113.45256684 87 117 C86.28070312 117.43828125 85.56140625 117.8765625 84.8203125 118.328125 C76.31287263 122.88682863 66.19555192 122.1728169 57.15820312 119.55981445 C35.97902907 112.65273735 18.01343244 94.88790133 7 76 C6.19755859 74.74316406 6.19755859 74.74316406 5.37890625 73.4609375 C-4.99177091 56.34026846 -4.75223259 35.40948214 -1.51171875 16.2421875 C-0.66207144 10.85892594 -0.34310687 5.43553515 0 0 Z " fill="#FCFCFC" transform="translate(498,111)"/>
<path d="M0 0 C1.24890518 -0.00556915 2.49781036 -0.01113831 3.78456116 -0.01687622 C5.17140386 -0.00785296 6.55824467 0.00146485 7.94508362 0.01104736 C9.40387088 0.01025656 10.86265793 0.00815952 12.32144165 0.00485229 C16.28898543 -0.00029001 20.25627058 0.01327533 24.22377276 0.0303793 C28.38217711 0.0454191 32.54057813 0.04424158 36.69900513 0.04504395 C43.69253443 0.04873992 50.6859658 0.06371471 57.67945862 0.08624268 C66.62716895 0.11500891 75.57479998 0.1254569 84.52255154 0.12992477 C92.2381 0.13392412 99.95363156 0.14643077 107.66916776 0.16027164 C110.1357623 0.16434992 112.60235625 0.16728628 115.06895256 0.17006683 C118.96691734 0.17500746 122.8648357 0.18528922 126.76277733 0.19950485 C128.18484832 0.20397984 129.6069255 0.20685494 131.02900314 0.20791245 C154.57087697 0.22932333 154.57087697 0.22932333 157.82894039 2.778759 C159.41670279 4.88707855 159.41261346 6.23669143 159.42384338 8.85968018 C159.42771057 9.72979736 159.43157776 10.59991455 159.43556213 11.49639893 C159.41815979 12.85571533 159.41815979 12.85571533 159.40040588 14.24249268 C159.41200745 15.14096924 159.42360901 16.0394458 159.43556213 16.96514893 C159.41379503 21.87725785 159.29782506 25.42462664 156.02540588 29.36749268 C153.17865617 30.79086753 150.78073544 30.49019262 147.5967865 30.48774719 C146.59579467 30.48902883 146.59579467 30.48902883 145.57458079 30.49033636 C143.32818177 30.49198952 141.08185667 30.48647247 138.83546448 30.48101807 C137.22927858 30.48073613 135.62309256 30.48089405 134.01690674 30.48146057 C129.6473186 30.48174831 125.27775773 30.47585542 120.90817595 30.46888661 C116.34509131 30.46264912 111.78200609 30.46204896 107.21891785 30.46086121 C98.57394078 30.45774906 89.92897632 30.44953724 81.28400481 30.43951172 C71.44376043 30.42834696 61.60351546 30.42283921 51.76326632 30.41781628 C31.5173058 30.40735454 11.27135664 30.38975735 -8.97459412 30.36749268 C-9.06149665 25.93011556 -9.11495338 21.49295634 -9.16209412 17.05499268 C-9.18723083 15.79235596 -9.21236755 14.52971924 -9.23826599 13.2288208 C-9.24793396 12.02032471 -9.25760193 10.81182861 -9.26756287 9.56671143 C-9.29112854 7.89354858 -9.29112854 7.89354858 -9.31517029 6.18658447 C-8.97459412 3.36749268 -8.97459412 3.36749268 -7.8296957 1.5030098 C-5.16305736 -0.1292531 -3.11758803 -0.0042031 0 0 Z " fill="#FBFAFB" transform="translate(271.97459411621094,109.63250732421875)"/>
<path d="M0 0 C-0.1388658 4.41691473 -0.28729272 8.83345756 -0.4375 13.25 C-0.47681641 14.50425781 -0.51613281 15.75851563 -0.55664062 17.05078125 C-0.61948242 18.85869141 -0.61948242 18.85869141 -0.68359375 20.703125 C-0.72025146 21.81333008 -0.75690918 22.92353516 -0.79467773 24.06738281 C-1 27 -1 27 -2 31 C-20.81 31 -39.62 31 -59 31 C-59 9 -59 9 -56 4 C-50.8219231 1.44312352 -44.93108155 1.32442929 -39.25 0.875 C-37.70022461 0.74762451 -37.70022461 0.74762451 -36.11914062 0.61767578 C-24.08777423 -0.27800863 -12.05599244 -0.19075937 0 0 Z " fill="#F7F7F7" transform="translate(218,111)"/>
<path d="M0 0 C1.37478516 0.01740234 1.37478516 0.01740234 2.77734375 0.03515625 C3.69644531 0.04417969 4.61554688 0.05320312 5.5625 0.0625 C6.27277344 0.07410156 6.98304688 0.08570312 7.71484375 0.09765625 C7.40300682 4.1810405 7.090249 8.26435374 6.77734375 12.34765625 C6.64682617 14.05695313 6.64682617 14.05695313 6.51367188 15.80078125 C6.3831543 17.50234375 6.3831543 17.50234375 6.25 19.23828125 C6.17144775 20.26469727 6.09289551 21.29111328 6.01196289 22.34863281 C5.84402164 24.46770093 5.66953684 26.58634464 5.47330093 28.70298004 C4.85841522 35.50724732 4.55741946 42.24121268 4.5378418 49.07128906 C4.527985 50.61149467 4.527985 50.61149467 4.51792908 52.18281555 C4.49836222 55.55547196 4.48655156 58.92808351 4.4765625 62.30078125 C4.47248697 63.47654472 4.46841145 64.6523082 4.46421242 65.86370087 C4.44339125 72.12413856 4.4290895 78.3845548 4.41967773 84.64501953 C4.41094098 89.71578449 4.3903598 94.78626429 4.3581543 99.85693359 C4.16125303 131.54645267 5.08764131 162.77338278 8.2485199 194.31269836 C8.90900478 200.96200842 9.41392439 207.62124277 9.90234375 214.28515625 C10.04147753 216.13282675 10.18076214 217.98048591 10.3203125 219.828125 C10.3826709 220.6639209 10.4450293 221.4997168 10.50927734 222.36083984 C10.90332737 227.6070403 11.30991427 232.8522861 11.71484375 238.09765625 C10.72484375 238.09765625 9.73484375 238.09765625 8.71484375 238.09765625 C3.98138776 224.01024063 3.0407632 209.43447231 1.65234375 194.72265625 C1.28523236 190.94323838 0.9144877 187.16420172 0.54164124 183.38534546 C0.31265988 181.05340577 0.08729101 178.72110607 -0.1330719 176.38833618 C-0.67280744 170.78399788 -1.25845571 165.2089117 -2.03311157 159.63227844 C-4.23226279 143.46417897 -4.69636393 127.61484495 -4.61328125 111.3125 C-4.61021173 108.6288639 -4.60824465 105.94524757 -4.60760498 103.26161194 C-4.60395493 97.68745246 -4.58920048 92.11341928 -4.56640625 86.53930664 C-4.53741154 79.43554851 -4.52716164 72.33189071 -4.52272415 65.2280798 C-4.51914639 59.7055816 -4.50891593 54.1831014 -4.49684906 48.66061592 C-4.49120183 46.04184709 -4.48642552 43.42307622 -4.48258209 40.80430412 C-4.40547897 0.18826833 -4.40547897 0.18826833 0 0 Z " fill="#EBEBEB" transform="translate(245.28515625,98.90234375)"/>
<path d="M0 0 C3 0.25 3 0.25 5 2.25 C5.375 5.1875 5.375 5.1875 5 8.25 C3.25 10.1875 3.25 10.1875 1 11.25 C-1.125 11.125 -1.125 11.125 -3 10.25 C-5.14915785 7.02626323 -5.38286803 5.98296326 -5 2.25 C-3 0.25 -3 0.25 0 0 Z " fill="#EAEAEA" transform="translate(584,168.75)"/>
<path d="M0 0 C0 3.58912412 -0.66436554 4.10857029 -3 6.6875 C-3.556875 7.31011719 -4.11375 7.93273437 -4.6875 8.57421875 C-5.120625 9.04472656 -5.55375 9.51523438 -6 10 C-6.99 9.34 -7.98 8.68 -9 8 C-6.03 5.36 -3.06 2.72 0 0 Z " fill="#2A2A2A" transform="translate(616,201)"/>
</svg>
